<svg width="30" height="30" viewBox="0 0 30 30" fill="none" xmlns="http://www.w3.org/2000/svg">
<rect x="3" y="5" width="25" height="25" fill="white"/>
<path d="M26.7857 0.125H3.21429C2.3618 0.125 1.54424 0.460825 0.941442 1.0586C0.338647 1.65637 0 2.46712 0 3.3125L0 26.6875C0 27.5329 0.338647 28.3436 0.941442 28.9414C1.54424 29.5392 2.3618 29.875 3.21429 29.875H12.4051V19.7607H8.18638V15H12.4051V11.3716C12.4051 7.24441 14.8828 4.96469 18.6777 4.96469C20.4951 4.96469 22.3955 5.28609 22.3955 5.28609V9.33688H20.3016C18.2384 9.33688 17.5949 10.6066 17.5949 11.9088V15H22.2007L21.4641 19.7607H17.5949V29.875H26.7857C27.6382 29.875 28.4558 29.5392 29.0586 28.9414C29.6614 28.3436 30 27.5329 30 26.6875V3.3125C30 2.46712 29.6614 1.65637 29.0586 1.0586C28.4558 0.460825 27.6382 0.125 26.7857 0.125V0.125Z" fill="#2C4388"/>
</svg>
