<svg width="30" height="30" viewBox="0 0 30 30" fill="none" xmlns="http://www.w3.org/2000/svg">
<rect width="30" height="30" rx="3" fill="#1399EC"/>
<rect x="4" y="5.51602" width="24" height="20.1143" fill="white"/>
<path d="M26 1.9697H4C2.34375 1.9697 1 3.27273 1 4.87879V26.2121C1 27.8182 2.34375 29.1212 4 29.1212H26C27.6562 29.1212 29 27.8182 29 26.2121V4.87879C29 3.27273 27.6562 1.9697 26 1.9697ZM22.9438 11.5939C22.9563 11.7636 22.9562 11.9394 22.9562 12.1091C22.9562 17.3636 18.8312 23.4182 11.2937 23.4182C8.96875 23.4182 6.8125 22.7636 5 21.6364C5.33125 21.6727 5.65 21.6848 5.9875 21.6848C7.90625 21.6848 9.66875 21.0545 11.075 19.9879C9.275 19.9515 7.7625 18.8061 7.24375 17.2303C7.875 17.3212 8.44375 17.3212 9.09375 17.1576C7.21875 16.7879 5.8125 15.1879 5.8125 13.2545V13.2061C6.35625 13.503 6.99375 13.6848 7.6625 13.7091C7.10027 13.3464 6.63936 12.8545 6.32092 12.2771C6.00247 11.6997 5.83639 11.0548 5.8375 10.4C5.8375 9.66061 6.0375 8.98182 6.39375 8.39394C8.4125 10.8061 11.4437 12.3818 14.8438 12.5515C14.2625 9.85455 16.3438 7.66667 18.8438 7.66667C20.025 7.66667 21.0875 8.14545 21.8375 8.92121C22.7625 8.75151 23.65 8.41818 24.4375 7.96364C24.1312 8.88485 23.4875 9.66061 22.6375 10.1515C23.4625 10.0667 24.2625 9.84242 25 9.53333C24.4438 10.3273 23.7438 11.0303 22.9438 11.5939Z" fill="#1399EC"/>
</svg>
