<svg width="30" height="30" viewBox="0 0 30 30" fill="none" xmlns="http://www.w3.org/2000/svg">
<rect width="30" height="30" rx="3" fill="#335278"/>
<rect x="6" y="5" width="21" height="19" fill="white"/>
<path d="M18.9638 17.3714C18.9638 19.5487 16.6587 19.4984 16.4149 19.4984H11.7204V15.3045H16.4149C18.8849 15.3045 18.9638 16.9422 18.9638 17.3714ZM16.0533 13.617C16.0922 13.617 18.2842 13.6683 18.2842 11.7528C18.2842 10.956 18.0805 9.91129 16.0533 9.91129H11.7204V13.617H16.0533V13.617ZM28 6.8335V22.1665C27.9966 23.1823 27.539 24.1556 26.727 24.8739C25.9151 25.5922 24.8148 25.997 23.6665 26H6.33353C5.18524 25.997 4.08495 25.5922 3.27298 24.8739C2.46102 24.1556 2.00337 23.1823 2 22.1665V6.8335C2.00337 5.81771 2.46102 4.84438 3.27298 4.1261C4.08495 3.40782 5.18524 3.00298 6.33353 3H23.6665C24.8148 3.00298 25.9151 3.40782 26.727 4.1261C27.539 4.84438 27.9966 5.81771 28 6.8335V6.8335ZM21.619 17.6758C21.619 16.5685 21.233 14.6833 18.7723 14.2181V14.1807C20.1019 13.6786 20.9394 12.7303 20.9394 11.3242C20.9394 10.9648 21.0554 7.99839 16.4358 7.99839H9.06527V21.4149C16.5072 21.4149 17.1827 21.5011 18.5599 21.1217C19.3846 20.8948 21.619 20.1987 21.619 17.6758V17.6758Z" fill="#335278"/>
</svg>
