<svg version="1.1" xmlns="http://www.w3.org/2000/svg" xmlns:xlink="http://www.w3.org/1999/xlink" width="23" height="20"><defs/><g><path fill="rgb(255,255,255)" stroke="none" paint-order="stroke fill markers" fill-rule="evenodd" d=" M 9.35302734375 15.77035903930664 C 8.456840515136719 15.77035903930664 7.730255126953125 16.493354439735413 7.730255126953125 17.384509444236755 C 7.730255126953125 18.277118802070618 8.456840515136719 18.999568819999695 9.35302734375 18.999568819999695 C 10.248756408691406 18.999568819999695 10.975456237792969 18.277118802070618 10.975456237792969 17.384509444236755 C 10.975456237792969 16.493354439735413 10.248756408691406 15.77035903930664 9.35302734375 15.77035903930664 Z M 16.43463134765625 15.77035903930664 C 15.537986755371094 15.77035903930664 14.811859130859375 16.493354439735413 14.811859130859375 17.384509444236755 C 14.811859130859375 18.277118802070618 15.537986755371094 18.999568819999695 16.43463134765625 18.999568819999695 C 17.330360412597656 18.999568819999695 18.057403564453125 18.277118802070618 18.057403564453125 17.384509444236755 C 18.057403564453125 16.493354439735413 17.330360412597656 15.77035903930664 16.43463134765625 15.77035903930664 Z M 20.51067352294922 6.919164657592773 C 20.51067352294922 6.919164657592773 11.522369384765625 6.918073892593384 11.522369384765625 6.918073892593384 C 11.072959899902344 6.918073892593384 10.708580017089844 7.280935049057007 10.708580017089844 7.728148698806763 C 10.708580017089844 8.175180554389954 11.072959899902344 8.538223505020142 11.522369384765625 8.538223505020142 C 11.522369384765625 8.538223505020142 19.474754333496094 8.537496328353882 19.474754333496094 8.537496328353882 C 19.474754333496094 8.537496328353882 18.970298767089844 10.236544609069824 18.970298767089844 10.236544609069824 C 18.970298767089844 10.236544609069824 10.885047912597656 10.238544344902039 10.885047912597656 10.238544344902039 C 10.4681396484375 10.238544344902039 10.130195617675781 10.574681758880615 10.130195617675781 10.989536046981812 C 10.130195617675781 11.404390335083008 10.4681396484375 11.740891337394714 10.885047912597656 11.740891337394714 C 10.885047912597656 11.740891337394714 18.523292541503906 11.743800044059753 18.523292541503906 11.743800044059753 C 18.523292541503906 11.743800044059753 18.049049377441406 13.333044648170471 18.049049377441406 13.333044648170471 C 18.049049377441406 13.333044648170471 8.937492370605469 13.333044648170471 8.937492370605469 13.333044648170471 C 8.937492370605469 13.333044648170471 8.333015441894531 8.537132740020752 8.333015441894531 8.537132740020752 C 8.333015441894531 8.537132740020752 7.755775451660156 3.864295482635498 7.755775451660156 3.864295482635498 C 7.708740234375 3.494889736175537 7.439460754394531 3.19147527217865 7.076568603515625 3.0993056297302246 C 7.076568603515625 3.0993056297302246 3.2332992553710938 2.1228891611099243 3.2332992553710938 2.1228891611099243 C 2.7453231811523438 1.9992691278457642 2.2488784790039062 2.2930485010147095 2.1243667602539062 2.778257131576538 C 1.999969482421875 3.2638293504714966 2.2945404052734375 3.7581276893615723 2.7825164794921875 3.8821113109588623 C 2.7825164794921875 3.8821113109588623 6.024513244628906 4.704729914665222 6.024513244628906 4.704729914665222 C 6.024513244628906 4.704729914665222 7.287025451660156 14.134029746055603 7.287025451660156 14.134029746055603 C 7.287025451660156 14.134029746055603 7.3299407958984375 15.233339071273804 8.333702087402344 15.233339071273804 C 8.333702087402344 15.233339071273804 18.405075073242188 15.233339071273804 18.405075073242188 15.233339071273804 C 19.24896240234375 15.233339071273804 19.41204071044922 14.357818365097046 19.41204071044922 14.357818365097046 C 19.41204071044922 14.357818365097046 21.408119201660156 8.458597660064697 21.408119201660156 8.458597660064697 C 21.408119201660156 8.458234071731567 21.999893188476562 6.919164657592773 20.51067352294922 6.919164657592773 Z"/></g></svg>