<svg version="1.1" xmlns="http://www.w3.org/2000/svg" xmlns:xlink="http://www.w3.org/1999/xlink" width="23" height="24"><defs/><g><path fill="rgb(255,255,255)" stroke="none" paint-order="stroke fill markers" fill-rule="evenodd" d=" M 21.362045288085938 13.736515641212463 C 21.78753662109375 13.113870620727539 21.999919891357422 12.42814302444458 21.999919891357422 11.679514646530151 C 21.999919891357422 10.81272006034851 21.670330047607422 10.059728622436523 21.01067352294922 9.41981315612793 C 20.350807189941406 8.78080666065216 19.56951904296875 8.460848927497864 18.666828155517578 8.460848927497864 C 18.666828155517578 8.460848927497864 16.375282287597656 8.460848927497864 16.375282287597656 8.460848927497864 C 16.791828155517578 7.627504467964172 17.000320434570312 6.820156574249268 17.000320434570312 6.037896275520325 C 17.000320434570312 5.053480863571167 16.84815216064453 4.271220564842224 16.544540405273438 3.6905699968338013 C 16.24054718017578 3.1099194288253784 15.797889709472656 2.682703137397766 15.216072082519531 2.409466505050659 C 14.634254455566406 2.1362298727035522 13.979080200195312 1.9997024536132812 13.249881744384766 1.9997024536132812 C 12.807090759277344 1.9997024536132812 12.416427612304688 2.155136466026306 12.078025817871094 2.466186285018921 C 11.704795837402344 2.819775938987732 11.435630798339844 3.2744431495666504 11.270721435546875 3.8296425342559814 C 11.105812072753906 4.384660124778748 10.973403930664062 4.916771650314331 10.87363052368164 5.425977110862732 C 10.773933410644531 5.935000777244568 10.619705200195312 6.294226050376892 10.411518096923828 6.504925489425659 C 9.986045837402344 6.9506847858428955 9.5216064453125 7.489340901374817 9.01806640625 8.120348453521729 C 8.141353607177734 9.222202897071838 7.546699523925781 9.874480366706848 7.23431396484375 10.076635479927063 C 7.23431396484375 10.076635479927063 3.6666183471679688 10.076635479927063 3.6666183471679688 10.076635479927063 C 3.2065277099609375 10.076635479927063 2.813671112060547 10.234432816505432 2.4881057739257812 10.54966390132904 C 2.162750244140625 10.865440368652344 1.9999008178710938 11.245935559272766 1.9999008178710938 11.691694855690002 C 1.9999008178710938 11.691694855690002 1.9999008178710938 19.76880967617035 1.9999008178710938 19.76880967617035 C 1.9999008178710938 20.214568972587585 2.1625213623046875 20.595064163208008 2.4881057739257812 20.91084063053131 C 2.8138999938964844 21.22607171535492 3.2065277099609375 21.38423264026642 3.6666183471679688 21.38423264026642 C 3.6666183471679688 21.38423264026642 7.416389465332031 21.38423264026642 7.416389465332031 21.38423264026642 C 7.607505798339844 21.38423264026642 8.206356048583984 21.552574038505554 9.213340759277344 21.88907504081726 C 10.281036376953125 22.250845432281494 11.220748901367188 22.52590000629425 12.032344818115234 22.71569311618805 C 12.844074249267578 22.90475904941559 13.666427612304688 22.999292016029358 14.500015258789062 22.999292016029358 C 14.500015258789062 22.999292016029358 15.710494995117188 22.999292016029358 15.710494995117188 22.999292016029358 C 15.710494995117188 22.999292016029358 16.179702758789062 22.999292016029358 16.179702758789062 22.999292016029358 C 17.403648376464844 22.999292016029358 18.388736724853516 22.660973072052002 19.13536834716797 21.98288083076477 C 19.881732940673828 21.30624294281006 20.25067138671875 20.382728576660156 20.24222183227539 19.213064908981323 C 20.762928009033203 18.565150499343872 21.023414611816406 17.81670391559601 21.023414611816406 16.966997981071472 C 21.023414611816406 16.781749725341797 21.01046371459961 16.60086452960968 20.984390258789062 16.424342393875122 C 21.314208984375 15.860598683357239 21.479347229003906 15.255042314529419 21.479347229003906 14.607491493225098 C 21.479347229003906 14.30407702922821 21.440322875976562 14.013569951057434 21.362045288085938 13.736515641212463 Z M 5.086009979248047 19.528841376304626 C 4.92108154296875 19.68863844871521 4.725730895996094 19.76880967617035 4.500072479248047 19.76880967617035 C 4.274280548095703 19.76880967617035 4.078929901123047 19.68863844871521 3.91400146484375 19.528841376304626 C 3.7490921020507812 19.369044303894043 3.6666183471679688 19.179614782333374 3.6666183471679688 18.96055281162262 C 3.6666183471679688 18.742218017578125 3.7490158081054688 18.552788496017456 3.91400146484375 18.392991423606873 C 4.079139709472656 18.23319435119629 4.274280548095703 18.153204917907715 4.500072479248047 18.153204917907715 C 4.725730895996094 18.153204917907715 4.92108154296875 18.23319435119629 5.086009979248047 18.392991423606873 C 5.250919342041016 18.552788496017456 5.333431243896484 18.742218017578125 5.333431243896484 18.96055281162262 C 5.333431243896484 19.179614782333374 5.250919342041016 19.369044303894043 5.086009979248047 19.528841376304626 Z M 20.053756713867188 12.714832425117493 C 19.8670654296875 13.102053999900818 19.634788513183594 13.299482464790344 19.357135772705078 13.307663202285767 C 19.487140655517578 13.45091700553894 19.59576416015625 13.651072382926941 19.68262481689453 13.906856775283813 C 19.769485473632812 14.163731932640076 19.81262969970703 14.39679205417633 19.81262969970703 14.607855081558228 C 19.81262969970703 15.187960267066956 19.582717895507812 15.68880319595337 19.12253189086914 16.10892951488495 C 19.27908706665039 16.378348469734192 19.357135772705078 16.668673753738403 19.357135772705078 16.979723572731018 C 19.357135772705078 17.291136980056763 19.281147003173828 17.600187063217163 19.129150390625 17.907419204711914 C 18.977420806884766 18.214287757873535 18.77129364013672 18.434985876083374 18.510940551757812 18.569331765174866 C 18.554218292236328 18.822025656700134 18.575733184814453 19.0576308965683 18.575733184814453 19.276692867279053 C 18.575733184814453 20.68123459815979 17.742279052734375 21.38386905193329 16.075542449951172 21.38386905193329 C 16.075542449951172 21.38386905193329 14.500377655029297 21.38386905193329 14.500377655029297 21.38386905193329 C 13.36285400390625 21.38386905193329 11.8787841796875 21.076636910438538 10.04702377319336 20.46308159828186 C 10.003517150878906 20.44544756412506 9.877899169921875 20.401453375816345 9.669368743896484 20.330371856689453 C 9.460990905761719 20.2585631608963 9.306953430175781 20.206024646759033 9.207027435302734 20.172210931777954 C 9.107120513916016 20.13857901096344 8.955352783203125 20.09040355682373 8.751190185546875 20.027320981025696 C 8.547161102294922 19.964056611061096 8.38248062133789 19.9178808927536 8.256500244140625 19.88879382610321 C 8.13071060180664 19.85861599445343 7.987297058105469 19.831892251968384 7.826869964599609 19.805895686149597 C 7.666423797607422 19.781171679496765 7.529533386230469 19.76880967617035 7.416847229003906 19.76880967617035 C 7.416847229003906 19.76880967617035 7.0001678466796875 19.76880967617035 7.0001678466796875 19.76880967617035 C 7.0001678466796875 19.76880967617035 7.0001678466796875 11.692240238189697 7.0001678466796875 11.692240238189697 C 7.0001678466796875 11.692240238189697 7.416847229003906 11.692240238189697 7.416847229003906 11.692240238189697 C 7.555644989013672 11.692240238189697 7.7097015380859375 11.65442705154419 7.878940582275391 11.578982472419739 C 8.048179626464844 11.502628922462463 8.221900939941406 11.38918936252594 8.39987564086914 11.237936615943909 C 8.577831268310547 11.086138486862183 8.744800567626953 10.936885476112366 8.901126861572266 10.789813995361328 C 9.057453155517578 10.642924308776855 9.231040954589844 10.45767605304718 9.422061920166016 10.234796404838562 C 9.61294937133789 10.011371374130249 9.762752532958984 9.832667708396912 9.871376037597656 9.698140025138855 C 9.979732513427734 9.563430547714233 10.11639404296875 9.390907883644104 10.28139877319336 9.180390238761902 C 10.446308135986328 8.97023618221283 10.54608154296875 8.843889236450195 10.580909729003906 8.802258372306824 C 11.058204650878906 8.230333924293518 11.392505645751953 7.8474754095077515 11.583393096923828 7.653864622116089 C 11.93930435180664 7.2919124364852905 12.197616577148438 6.831427812576294 12.358043670654297 6.272228956222534 C 12.518852233886719 5.71212112903595 12.651126861572266 5.18455445766449 12.75515365600586 4.68789279460907 C 12.859180450439453 4.19159471988678 13.02431869506836 3.834187388420105 13.250244140625 3.6154890060424805 C 14.08346939086914 3.6154890060424805 14.639175415039062 3.8130992650985718 14.916694641113281 4.208501577377319 C 15.194576263427734 4.603903889656067 15.3333740234375 5.21364152431488 15.3333740234375 6.0384416580200195 C 15.3333740234375 6.5351033210754395 15.124881744384766 7.209741473197937 14.708202362060547 8.063628673553467 C 14.291656494140625 8.917697668075562 14.08346939086914 9.588518142700195 14.08346939086914 10.076635479927063 C 14.08346939086914 10.076635479927063 18.66669464111328 10.076635479927063 18.66669464111328 10.076635479927063 C 19.101036071777344 10.076635479927063 19.487140655517578 10.238614082336426 19.82567596435547 10.562389492988586 C 20.164173126220703 10.886710286140442 20.333641052246094 11.263387799263 20.333641052246094 11.692240238189697 C 20.333641052246094 11.986564993858337 20.24039077758789 12.327065467834473 20.053756713867188 12.714832425117493 Z"/></g></svg>